# xmcd
#
# Track frame offsets: 
#        150
#        13017
#        25129
#        40181
#        50496
#        64254
#        74027
#        85604
#        102312
#        116650
#        128960
#        139508
#        152496
#        166661
#        180008
#        192122
#        200967
#        210734
#        228465
#        240117
#        253770
#        266301
#        278452
#        291312
#        319466
#        335461
#
# Disc length: 4747 seconds
#
# Revision: 0
# Processed by: cddbd v1.5.2PL0 Copyright (c) Steve Scherf et al.
# Submitted via: ExactAudioCopy v0.99pb5
#
DISCID=7012891a
DTITLE=Various Artist - Honey Aaltonen Presents - The Ultimate Party Album
DYEAR=2010
DGENRE=R&B
TTITLE0=Honey's 45 - Vamp Me
TTITLE1=Teendreams - Be My Baby
TTITLE2=Tortilla Flat - Night Shift
TTITLE3=Cat Lee and Co - Let's Have A Ball
TTITLE4=Tortilla Flat - Little Miss Monster
TTITLE5=Teendreams - It's In His Kiss
TTITLE6=Big Bertha And The Bulldozers - El Choclo Cha-Cha A.K.A Kiss O
TTITLE6=f Fire
TTITLE7=Tortilla Flat - Snake Charmer Woman
TTITLE8=Honey's Tex Mex B-B-Q - I Promised Not To Break Your Heart
TTITLE9=Teendreams - My Only One
TTITLE10=Big Bertha And The Bulldozers - Zulu Stomp
TTITLE11=Tortilla Flat - Me And The Devil Blues
TTITLE12=Hawaiian Hula Hoppers - Hula Blues
TTITLE13=U-Bayou - Kapakka In The Kaupunki
TTITLE14=Tortilla Flat - Sweet Little Girl With A Rosette In Her Hair
TTITLE15=Big Bertha And The Bulldozers - Mad Child
TTITLE16=Crossroads - Dimples
TTITLE17=Tortilla Flat - Lover's Game
TTITLE18=Honey's 45 - Safe, Sane And Single
TTITLE19=Tortilla Flat - Margarita
TTITLE20=Teendreams - Gypsy Woman
TTITLE21=Tortilla Flat - If We Talk About Music - It's Rhythm And Blue
TTITLE21=s
TTITLE22=Tortilla Flat - Sugar Daddy Blues
TTITLE23=Tortilla Flat - Like Lovers Do
TTITLE24=Tortilla Flat - Double Date
TTITLE25=Honey's Bar Room Trio - The Colours Of Autumn
EXTD=
EXTT0=
EXTT1=
EXTT2=
EXTT3=
EXTT4=
EXTT5=
EXTT6=
EXTT7=
EXTT8=
EXTT9=
EXTT10=
EXTT11=
EXTT12=
EXTT13=
EXTT14=
EXTT15=
EXTT16=
EXTT17=
EXTT18=
EXTT19=
EXTT20=
EXTT21=
EXTT22=
EXTT23=
EXTT24=
EXTT25=
PLAYORDER=
